<mxfile host="Electron" modified="2023-07-10T15:17:46.933Z" agent="Mozilla/5.0 (Macintosh; Intel Mac OS X 10_15_7) AppleWebKit/537.36 (KHTML, like Gecko) draw.io/21.5.1 Chrome/112.0.5615.204 Electron/24.6.0 Safari/537.36" etag="gJx5EBUUNFp3Pb0VW5NW" version="21.5.1" type="device">
  <diagram name="Page-1" id="EP78m_guM2NGAbF6yLtC">
    <mxGraphModel dx="776" dy="712" grid="1" gridSize="10" guides="1" tooltips="1" connect="1" arrows="1" fold="1" page="1" pageScale="1" pageWidth="827" pageHeight="1169" math="0" shadow="0">
      <root>
        <mxCell id="0" />
        <mxCell id="1" value="Background" style="" parent="0" />
        <mxCell id="VF-F0CnbNoAk2hL9MY8E-5" value="" style="whiteSpace=wrap;html=1;rounded=1;strokeWidth=4;" vertex="1" parent="1">
          <mxGeometry x="140" y="60" width="670" height="360" as="geometry" />
        </mxCell>
        <mxCell id="VF-F0CnbNoAk2hL9MY8E-6" value="" style="image;sketch=0;html=1;points=[];align=center;fontSize=12;image=img/lib/mscae/Kubernetes.svg;aspect=fixed;" vertex="1" parent="1">
          <mxGeometry x="120" y="40" width="80" height="80" as="geometry" />
        </mxCell>
        <mxCell id="VF-F0CnbNoAk2hL9MY8E-124" value="" style="triangle;whiteSpace=wrap;html=1;" vertex="1" parent="1">
          <mxGeometry x="350" y="150" width="60" height="80" as="geometry" />
        </mxCell>
        <mxCell id="VF-F0CnbNoAk2hL9MY8E-1" value="ControlPlane" style="locked=1;" parent="0" />
        <mxCell id="VF-F0CnbNoAk2hL9MY8E-7" value="Control Plane (cp) Nodes" style="whiteSpace=wrap;html=1;rounded=1;labelPosition=center;verticalLabelPosition=top;align=center;verticalAlign=bottom;fontSize=16;" vertex="1" parent="VF-F0CnbNoAk2hL9MY8E-1">
          <mxGeometry x="190" y="110" width="290" height="290" as="geometry" />
        </mxCell>
        <mxCell id="VF-F0CnbNoAk2hL9MY8E-117" value="" style="sketch=0;html=1;dashed=0;whitespace=wrap;fillColor=#2875E2;strokeColor=#ffffff;points=[[0.005,0.63,0],[0.1,0.2,0],[0.9,0.2,0],[0.5,0,0],[0.995,0.63,0],[0.72,0.99,0],[0.5,1,0],[0.28,0.99,0]];verticalLabelPosition=bottom;align=center;verticalAlign=top;shape=mxgraph.kubernetes.icon;prIcon=cm" vertex="1" parent="VF-F0CnbNoAk2hL9MY8E-1">
          <mxGeometry x="200" y="80" width="50" height="30" as="geometry" />
        </mxCell>
        <mxCell id="VF-F0CnbNoAk2hL9MY8E-2" value="WorkerNodes" style="locked=1;" parent="0" />
        <mxCell id="VF-F0CnbNoAk2hL9MY8E-8" value="Worker Nodes" style="whiteSpace=wrap;html=1;rounded=1;labelPosition=center;verticalLabelPosition=top;align=center;verticalAlign=bottom;fontSize=16;" vertex="1" parent="VF-F0CnbNoAk2hL9MY8E-2">
          <mxGeometry x="550" y="110" width="210" height="80" as="geometry" />
        </mxCell>
        <mxCell id="VF-F0CnbNoAk2hL9MY8E-9" value="" style="whiteSpace=wrap;html=1;rounded=1;" vertex="1" parent="VF-F0CnbNoAk2hL9MY8E-2">
          <mxGeometry x="550" y="320" width="210" height="80" as="geometry" />
        </mxCell>
        <mxCell id="VF-F0CnbNoAk2hL9MY8E-10" value="" style="whiteSpace=wrap;html=1;rounded=1;" vertex="1" parent="VF-F0CnbNoAk2hL9MY8E-2">
          <mxGeometry x="550" y="220" width="210" height="80" as="geometry" />
        </mxCell>
        <mxCell id="VF-F0CnbNoAk2hL9MY8E-116" value="" style="sketch=0;html=1;dashed=0;whitespace=wrap;fillColor=#2875E2;strokeColor=#ffffff;points=[[0.005,0.63,0],[0.1,0.2,0],[0.9,0.2,0],[0.5,0,0],[0.995,0.63,0],[0.72,0.99,0],[0.5,1,0],[0.28,0.99,0]];verticalLabelPosition=bottom;align=center;verticalAlign=top;shape=mxgraph.kubernetes.icon;prIcon=node" vertex="1" parent="VF-F0CnbNoAk2hL9MY8E-2">
          <mxGeometry x="560" y="80" width="50" height="30" as="geometry" />
        </mxCell>
        <mxCell id="VF-F0CnbNoAk2hL9MY8E-16" value="kube-apiserver" style="locked=1;" parent="0" />
        <mxCell id="VF-F0CnbNoAk2hL9MY8E-11" value="&lt;font style=&quot;font-size: 16px;&quot;&gt;kube-apiserver&lt;/font&gt;" style="whiteSpace=wrap;html=1;rounded=1;strokeColor=#0000CC;labelPosition=center;verticalLabelPosition=middle;align=center;verticalAlign=middle;" vertex="1" parent="VF-F0CnbNoAk2hL9MY8E-16">
          <mxGeometry x="200" y="220" width="270" height="40" as="geometry" />
        </mxCell>
        <mxCell id="VF-F0CnbNoAk2hL9MY8E-20" value="" style="sketch=0;html=1;dashed=0;whitespace=wrap;fillColor=#2875E2;strokeColor=#ffffff;points=[[0.005,0.63,0],[0.1,0.2,0],[0.9,0.2,0],[0.5,0,0],[0.995,0.63,0],[0.72,0.99,0],[0.5,1,0],[0.28,0.99,0]];verticalLabelPosition=bottom;align=center;verticalAlign=top;shape=mxgraph.kubernetes.icon;prIcon=api" vertex="1" parent="VF-F0CnbNoAk2hL9MY8E-16">
          <mxGeometry x="204" y="225" width="30" height="30" as="geometry" />
        </mxCell>
        <mxCell id="VF-F0CnbNoAk2hL9MY8E-17" value="etcd" style="locked=1;" parent="0" />
        <mxCell id="VF-F0CnbNoAk2hL9MY8E-12" value="etcd" style="shape=cylinder3;whiteSpace=wrap;html=1;boundedLbl=1;backgroundOutline=1;size=15;strokeColor=#00994D;" vertex="1" parent="VF-F0CnbNoAk2hL9MY8E-17">
          <mxGeometry x="200" y="120" width="50" height="60" as="geometry" />
        </mxCell>
        <mxCell id="VF-F0CnbNoAk2hL9MY8E-13" style="edgeStyle=orthogonalEdgeStyle;rounded=0;orthogonalLoop=1;jettySize=auto;html=1;startArrow=classic;startFill=1;" edge="1" parent="VF-F0CnbNoAk2hL9MY8E-17" source="VF-F0CnbNoAk2hL9MY8E-12">
          <mxGeometry relative="1" as="geometry">
            <mxPoint x="225" y="220" as="targetPoint" />
          </mxGeometry>
        </mxCell>
        <mxCell id="VF-F0CnbNoAk2hL9MY8E-21" value="" style="sketch=0;html=1;dashed=0;whitespace=wrap;fillColor=#2875E2;strokeColor=#ffffff;points=[[0.005,0.63,0],[0.1,0.2,0],[0.9,0.2,0],[0.5,0,0],[0.995,0.63,0],[0.72,0.99,0],[0.5,1,0],[0.28,0.99,0]];verticalLabelPosition=bottom;align=center;verticalAlign=top;shape=mxgraph.kubernetes.icon;prIcon=etcd" vertex="1" parent="VF-F0CnbNoAk2hL9MY8E-17">
          <mxGeometry x="210" y="120" width="30" height="30" as="geometry" />
        </mxCell>
        <mxCell id="VF-F0CnbNoAk2hL9MY8E-19" value="kubectl" style="locked=1;" parent="0" />
        <mxCell id="VF-F0CnbNoAk2hL9MY8E-15" style="edgeStyle=orthogonalEdgeStyle;rounded=0;orthogonalLoop=1;jettySize=auto;html=1;entryX=0;entryY=0.5;entryDx=0;entryDy=0;strokeWidth=4;" edge="1" parent="VF-F0CnbNoAk2hL9MY8E-19" target="VF-F0CnbNoAk2hL9MY8E-11">
          <mxGeometry relative="1" as="geometry">
            <mxPoint x="50" y="240" as="sourcePoint" />
          </mxGeometry>
        </mxCell>
        <mxCell id="VF-F0CnbNoAk2hL9MY8E-18" value="kubectl&lt;br style=&quot;font-size: 13px;&quot;&gt;API Call" style="edgeLabel;html=1;align=center;verticalAlign=top;resizable=0;points=[];labelPosition=center;verticalLabelPosition=bottom;fontSize=13;" vertex="1" connectable="0" parent="VF-F0CnbNoAk2hL9MY8E-15">
          <mxGeometry x="-0.32" y="-2" relative="1" as="geometry">
            <mxPoint x="-11" y="-2" as="offset" />
          </mxGeometry>
        </mxCell>
        <mxCell id="VF-F0CnbNoAk2hL9MY8E-23" value="kube-controller-manager" style="locked=1;" parent="0" />
        <mxCell id="VF-F0CnbNoAk2hL9MY8E-25" value="" style="group" vertex="1" connectable="0" parent="VF-F0CnbNoAk2hL9MY8E-23">
          <mxGeometry x="280" y="130" width="150" height="40" as="geometry" />
        </mxCell>
        <mxCell id="VF-F0CnbNoAk2hL9MY8E-22" value="kube-control-manager" style="whiteSpace=wrap;html=1;rounded=1;align=right;" vertex="1" parent="VF-F0CnbNoAk2hL9MY8E-25">
          <mxGeometry width="150" height="30" as="geometry" />
        </mxCell>
        <mxCell id="VF-F0CnbNoAk2hL9MY8E-24" value="" style="sketch=0;html=1;dashed=0;whitespace=wrap;fillColor=#2875E2;strokeColor=#ffffff;points=[[0.005,0.63,0],[0.1,0.2,0],[0.9,0.2,0],[0.5,0,0],[0.995,0.63,0],[0.72,0.99,0],[0.5,1,0],[0.28,0.99,0]];verticalLabelPosition=bottom;align=center;verticalAlign=top;shape=mxgraph.kubernetes.icon;prIcon=c_m" vertex="1" parent="VF-F0CnbNoAk2hL9MY8E-25">
          <mxGeometry width="30" height="30" as="geometry" />
        </mxCell>
        <mxCell id="VF-F0CnbNoAk2hL9MY8E-39" style="edgeStyle=orthogonalEdgeStyle;rounded=0;orthogonalLoop=1;jettySize=auto;html=1;entryX=0.435;entryY=0;entryDx=0;entryDy=0;entryPerimeter=0;startArrow=classic;startFill=1;exitX=0.25;exitY=1;exitDx=0;exitDy=0;" edge="1" parent="VF-F0CnbNoAk2hL9MY8E-23" source="VF-F0CnbNoAk2hL9MY8E-22" target="VF-F0CnbNoAk2hL9MY8E-11">
          <mxGeometry relative="1" as="geometry" />
        </mxCell>
        <mxCell id="VF-F0CnbNoAk2hL9MY8E-26" value="kube-scheduler" style="locked=1;" parent="0" />
        <mxCell id="VF-F0CnbNoAk2hL9MY8E-29" value="" style="group" vertex="1" connectable="0" parent="VF-F0CnbNoAk2hL9MY8E-26">
          <mxGeometry x="200" y="290" width="120" height="30" as="geometry" />
        </mxCell>
        <mxCell id="VF-F0CnbNoAk2hL9MY8E-27" value="kube-scheduler" style="whiteSpace=wrap;html=1;rounded=1;align=right;" vertex="1" parent="VF-F0CnbNoAk2hL9MY8E-29">
          <mxGeometry width="120" height="30" as="geometry" />
        </mxCell>
        <mxCell id="VF-F0CnbNoAk2hL9MY8E-28" value="" style="sketch=0;html=1;dashed=0;whitespace=wrap;fillColor=#2875E2;strokeColor=#ffffff;points=[[0.005,0.63,0],[0.1,0.2,0],[0.9,0.2,0],[0.5,0,0],[0.995,0.63,0],[0.72,0.99,0],[0.5,1,0],[0.28,0.99,0]];verticalLabelPosition=bottom;align=center;verticalAlign=top;shape=mxgraph.kubernetes.icon;prIcon=sched" vertex="1" parent="VF-F0CnbNoAk2hL9MY8E-29">
          <mxGeometry width="30" height="30" as="geometry" />
        </mxCell>
        <mxCell id="VF-F0CnbNoAk2hL9MY8E-30" style="edgeStyle=orthogonalEdgeStyle;rounded=0;orthogonalLoop=1;jettySize=auto;html=1;entryX=0.219;entryY=0.95;entryDx=0;entryDy=0;entryPerimeter=0;startArrow=classic;startFill=1;" edge="1" parent="VF-F0CnbNoAk2hL9MY8E-26" source="VF-F0CnbNoAk2hL9MY8E-27" target="VF-F0CnbNoAk2hL9MY8E-11">
          <mxGeometry relative="1" as="geometry" />
        </mxCell>
        <mxCell id="VF-F0CnbNoAk2hL9MY8E-34" value="cloud-controller-manager" style="locked=1;" parent="0" />
        <mxCell id="VF-F0CnbNoAk2hL9MY8E-37" style="edgeStyle=orthogonalEdgeStyle;rounded=0;orthogonalLoop=1;jettySize=auto;html=1;entryX=0.5;entryY=1;entryDx=0;entryDy=0;startArrow=classic;startFill=1;dashed=1;exitX=0.844;exitY=0;exitDx=0;exitDy=0;exitPerimeter=0;" edge="1" parent="VF-F0CnbNoAk2hL9MY8E-34" source="VF-F0CnbNoAk2hL9MY8E-35" target="VF-F0CnbNoAk2hL9MY8E-11">
          <mxGeometry relative="1" as="geometry" />
        </mxCell>
        <mxCell id="VF-F0CnbNoAk2hL9MY8E-38" value="" style="group" vertex="1" connectable="0" parent="VF-F0CnbNoAk2hL9MY8E-34">
          <mxGeometry x="200" y="340" width="160" height="30" as="geometry" />
        </mxCell>
        <mxCell id="VF-F0CnbNoAk2hL9MY8E-35" value="cloud-control-manager" style="rounded=1;whiteSpace=wrap;html=1;align=right;dashed=1;" vertex="1" parent="VF-F0CnbNoAk2hL9MY8E-38">
          <mxGeometry width="160" height="30" as="geometry" />
        </mxCell>
        <mxCell id="VF-F0CnbNoAk2hL9MY8E-36" value="" style="sketch=0;html=1;dashed=1;whitespace=wrap;fillColor=#2875E2;strokeColor=#ffffff;points=[[0.005,0.63,0],[0.1,0.2,0],[0.9,0.2,0],[0.5,0,0],[0.995,0.63,0],[0.72,0.99,0],[0.5,1,0],[0.28,0.99,0]];verticalLabelPosition=bottom;align=center;verticalAlign=top;shape=mxgraph.kubernetes.icon;prIcon=c_c_m" vertex="1" parent="VF-F0CnbNoAk2hL9MY8E-38">
          <mxGeometry width="30" height="30" as="geometry" />
        </mxCell>
        <mxCell id="VF-F0CnbNoAk2hL9MY8E-41" value="kubelet" style="locked=1;" parent="0" />
        <mxCell id="VF-F0CnbNoAk2hL9MY8E-66" value="" style="group" vertex="1" connectable="0" parent="VF-F0CnbNoAk2hL9MY8E-41">
          <mxGeometry x="360" y="290" width="90" height="30" as="geometry" />
        </mxCell>
        <mxCell id="VF-F0CnbNoAk2hL9MY8E-64" value="kubelet" style="shape=process;whiteSpace=wrap;html=1;backgroundOutline=1;align=right;strokeColor=#00994D;" vertex="1" parent="VF-F0CnbNoAk2hL9MY8E-66">
          <mxGeometry width="90" height="30" as="geometry" />
        </mxCell>
        <mxCell id="VF-F0CnbNoAk2hL9MY8E-65" value="" style="sketch=0;html=1;dashed=0;whitespace=wrap;fillColor=#2875E2;strokeColor=#ffffff;points=[[0.005,0.63,0],[0.1,0.2,0],[0.9,0.2,0],[0.5,0,0],[0.995,0.63,0],[0.72,0.99,0],[0.5,1,0],[0.28,0.99,0]];verticalLabelPosition=bottom;align=center;verticalAlign=top;shape=mxgraph.kubernetes.icon;prIcon=kubelet" vertex="1" parent="VF-F0CnbNoAk2hL9MY8E-66">
          <mxGeometry x="9" width="30" height="30" as="geometry" />
        </mxCell>
        <mxCell id="VF-F0CnbNoAk2hL9MY8E-67" value="" style="group" vertex="1" connectable="0" parent="VF-F0CnbNoAk2hL9MY8E-41">
          <mxGeometry x="560" y="326" width="90" height="30" as="geometry" />
        </mxCell>
        <mxCell id="VF-F0CnbNoAk2hL9MY8E-68" value="kubelet" style="shape=process;whiteSpace=wrap;html=1;backgroundOutline=1;align=right;strokeColor=#00994D;" vertex="1" parent="VF-F0CnbNoAk2hL9MY8E-67">
          <mxGeometry width="90" height="30" as="geometry" />
        </mxCell>
        <mxCell id="VF-F0CnbNoAk2hL9MY8E-69" value="" style="sketch=0;html=1;dashed=0;whitespace=wrap;fillColor=#2875E2;strokeColor=#ffffff;points=[[0.005,0.63,0],[0.1,0.2,0],[0.9,0.2,0],[0.5,0,0],[0.995,0.63,0],[0.72,0.99,0],[0.5,1,0],[0.28,0.99,0]];verticalLabelPosition=bottom;align=center;verticalAlign=top;shape=mxgraph.kubernetes.icon;prIcon=kubelet" vertex="1" parent="VF-F0CnbNoAk2hL9MY8E-67">
          <mxGeometry x="9" width="30" height="30" as="geometry" />
        </mxCell>
        <mxCell id="VF-F0CnbNoAk2hL9MY8E-70" value="" style="group" vertex="1" connectable="0" parent="VF-F0CnbNoAk2hL9MY8E-41">
          <mxGeometry x="560" y="230" width="90" height="30" as="geometry" />
        </mxCell>
        <mxCell id="VF-F0CnbNoAk2hL9MY8E-71" value="kubelet" style="shape=process;whiteSpace=wrap;html=1;backgroundOutline=1;align=right;strokeColor=#00994D;" vertex="1" parent="VF-F0CnbNoAk2hL9MY8E-70">
          <mxGeometry y="-4" width="90" height="30" as="geometry" />
        </mxCell>
        <mxCell id="VF-F0CnbNoAk2hL9MY8E-72" value="" style="sketch=0;html=1;dashed=0;whitespace=wrap;fillColor=#2875E2;strokeColor=#ffffff;points=[[0.005,0.63,0],[0.1,0.2,0],[0.9,0.2,0],[0.5,0,0],[0.995,0.63,0],[0.72,0.99,0],[0.5,1,0],[0.28,0.99,0]];verticalLabelPosition=bottom;align=center;verticalAlign=top;shape=mxgraph.kubernetes.icon;prIcon=kubelet" vertex="1" parent="VF-F0CnbNoAk2hL9MY8E-70">
          <mxGeometry x="9" y="-4" width="30" height="30" as="geometry" />
        </mxCell>
        <mxCell id="VF-F0CnbNoAk2hL9MY8E-73" value="" style="group" vertex="1" connectable="0" parent="VF-F0CnbNoAk2hL9MY8E-41">
          <mxGeometry x="560" y="116" width="90" height="30" as="geometry" />
        </mxCell>
        <mxCell id="VF-F0CnbNoAk2hL9MY8E-74" value="kubelet" style="shape=process;whiteSpace=wrap;html=1;backgroundOutline=1;align=right;strokeColor=#00994D;" vertex="1" parent="VF-F0CnbNoAk2hL9MY8E-73">
          <mxGeometry width="90" height="30" as="geometry" />
        </mxCell>
        <mxCell id="VF-F0CnbNoAk2hL9MY8E-75" value="" style="sketch=0;html=1;dashed=0;whitespace=wrap;fillColor=#2875E2;strokeColor=#ffffff;points=[[0.005,0.63,0],[0.1,0.2,0],[0.9,0.2,0],[0.5,0,0],[0.995,0.63,0],[0.72,0.99,0],[0.5,1,0],[0.28,0.99,0]];verticalLabelPosition=bottom;align=center;verticalAlign=top;shape=mxgraph.kubernetes.icon;prIcon=kubelet" vertex="1" parent="VF-F0CnbNoAk2hL9MY8E-73">
          <mxGeometry x="9" width="30" height="30" as="geometry" />
        </mxCell>
        <mxCell id="VF-F0CnbNoAk2hL9MY8E-79" style="edgeStyle=orthogonalEdgeStyle;rounded=0;orthogonalLoop=1;jettySize=auto;html=1;entryX=0.759;entryY=0.992;entryDx=0;entryDy=0;startArrow=classic;startFill=1;entryPerimeter=0;" edge="1" parent="VF-F0CnbNoAk2hL9MY8E-41" source="VF-F0CnbNoAk2hL9MY8E-64" target="VF-F0CnbNoAk2hL9MY8E-11">
          <mxGeometry relative="1" as="geometry" />
        </mxCell>
        <mxCell id="VF-F0CnbNoAk2hL9MY8E-80" style="edgeStyle=orthogonalEdgeStyle;orthogonalLoop=1;jettySize=auto;html=1;exitX=0;exitY=0.5;exitDx=0;exitDy=0;entryX=1;entryY=0.75;entryDx=0;entryDy=0;curved=1;startArrow=classic;startFill=1;" edge="1" parent="VF-F0CnbNoAk2hL9MY8E-41" source="VF-F0CnbNoAk2hL9MY8E-68" target="VF-F0CnbNoAk2hL9MY8E-11">
          <mxGeometry relative="1" as="geometry" />
        </mxCell>
        <mxCell id="VF-F0CnbNoAk2hL9MY8E-81" style="edgeStyle=orthogonalEdgeStyle;orthogonalLoop=1;jettySize=auto;html=1;entryX=1;entryY=0.5;entryDx=0;entryDy=0;curved=1;startArrow=classic;startFill=1;exitX=0;exitY=0.5;exitDx=0;exitDy=0;" edge="1" parent="VF-F0CnbNoAk2hL9MY8E-41" source="VF-F0CnbNoAk2hL9MY8E-71" target="VF-F0CnbNoAk2hL9MY8E-11">
          <mxGeometry relative="1" as="geometry" />
        </mxCell>
        <mxCell id="VF-F0CnbNoAk2hL9MY8E-83" style="edgeStyle=orthogonalEdgeStyle;orthogonalLoop=1;jettySize=auto;html=1;entryX=1;entryY=0.25;entryDx=0;entryDy=0;curved=1;startArrow=classic;startFill=1;" edge="1" parent="VF-F0CnbNoAk2hL9MY8E-41" source="VF-F0CnbNoAk2hL9MY8E-74" target="VF-F0CnbNoAk2hL9MY8E-11">
          <mxGeometry relative="1" as="geometry" />
        </mxCell>
        <mxCell id="VF-F0CnbNoAk2hL9MY8E-63" value="kube-proxy" style="locked=1;" parent="0" />
        <mxCell id="VF-F0CnbNoAk2hL9MY8E-94" value="" style="group" vertex="1" connectable="0" parent="VF-F0CnbNoAk2hL9MY8E-63">
          <mxGeometry x="560" y="364" width="90" height="30" as="geometry" />
        </mxCell>
        <mxCell id="VF-F0CnbNoAk2hL9MY8E-95" value="kube-proxy" style="rounded=1;whiteSpace=wrap;html=1;align=right;strokeColor=#994C00;" vertex="1" parent="VF-F0CnbNoAk2hL9MY8E-94">
          <mxGeometry width="90" height="30" as="geometry" />
        </mxCell>
        <mxCell id="VF-F0CnbNoAk2hL9MY8E-96" value="" style="sketch=0;html=1;dashed=0;whitespace=wrap;fillColor=#2875E2;strokeColor=#ffffff;points=[[0.005,0.63,0],[0.1,0.2,0],[0.9,0.2,0],[0.5,0,0],[0.995,0.63,0],[0.72,0.99,0],[0.5,1,0],[0.28,0.99,0]];verticalLabelPosition=bottom;align=center;verticalAlign=top;shape=mxgraph.kubernetes.icon;prIcon=k_proxy" vertex="1" parent="VF-F0CnbNoAk2hL9MY8E-94">
          <mxGeometry width="27" height="30" as="geometry" />
        </mxCell>
        <mxCell id="VF-F0CnbNoAk2hL9MY8E-97" value="" style="group" vertex="1" connectable="0" parent="VF-F0CnbNoAk2hL9MY8E-63">
          <mxGeometry x="360" y="170" width="90" height="30" as="geometry" />
        </mxCell>
        <mxCell id="VF-F0CnbNoAk2hL9MY8E-98" value="kube-proxy" style="rounded=1;whiteSpace=wrap;html=1;align=right;strokeColor=#994C00;" vertex="1" parent="VF-F0CnbNoAk2hL9MY8E-97">
          <mxGeometry width="90" height="30" as="geometry" />
        </mxCell>
        <mxCell id="VF-F0CnbNoAk2hL9MY8E-99" value="" style="sketch=0;html=1;dashed=0;whitespace=wrap;fillColor=#2875E2;strokeColor=#ffffff;points=[[0.005,0.63,0],[0.1,0.2,0],[0.9,0.2,0],[0.5,0,0],[0.995,0.63,0],[0.72,0.99,0],[0.5,1,0],[0.28,0.99,0]];verticalLabelPosition=bottom;align=center;verticalAlign=top;shape=mxgraph.kubernetes.icon;prIcon=k_proxy" vertex="1" parent="VF-F0CnbNoAk2hL9MY8E-97">
          <mxGeometry width="27" height="30" as="geometry" />
        </mxCell>
        <mxCell id="VF-F0CnbNoAk2hL9MY8E-100" value="" style="group" vertex="1" connectable="0" parent="VF-F0CnbNoAk2hL9MY8E-63">
          <mxGeometry x="560" y="264" width="90" height="30" as="geometry" />
        </mxCell>
        <mxCell id="VF-F0CnbNoAk2hL9MY8E-101" value="kube-proxy" style="rounded=1;whiteSpace=wrap;html=1;align=right;strokeColor=#994C00;" vertex="1" parent="VF-F0CnbNoAk2hL9MY8E-100">
          <mxGeometry width="90" height="30" as="geometry" />
        </mxCell>
        <mxCell id="VF-F0CnbNoAk2hL9MY8E-107" style="edgeStyle=orthogonalEdgeStyle;orthogonalLoop=1;jettySize=auto;html=1;curved=1;exitX=0.005;exitY=0.63;exitDx=0;exitDy=0;exitPerimeter=0;startArrow=classic;startFill=1;" edge="1" parent="VF-F0CnbNoAk2hL9MY8E-100" source="VF-F0CnbNoAk2hL9MY8E-102">
          <mxGeometry relative="1" as="geometry">
            <mxPoint x="-90" y="-24" as="targetPoint" />
            <Array as="points">
              <mxPoint x="-20" y="19" />
              <mxPoint x="-20" y="-14" />
              <mxPoint x="-70" y="-14" />
              <mxPoint x="-70" y="-24" />
            </Array>
          </mxGeometry>
        </mxCell>
        <mxCell id="VF-F0CnbNoAk2hL9MY8E-102" value="" style="sketch=0;html=1;dashed=0;whitespace=wrap;fillColor=#2875E2;strokeColor=#ffffff;points=[[0.005,0.63,0],[0.1,0.2,0],[0.9,0.2,0],[0.5,0,0],[0.995,0.63,0],[0.72,0.99,0],[0.5,1,0],[0.28,0.99,0]];verticalLabelPosition=bottom;align=center;verticalAlign=top;shape=mxgraph.kubernetes.icon;prIcon=k_proxy" vertex="1" parent="VF-F0CnbNoAk2hL9MY8E-100">
          <mxGeometry width="27" height="30" as="geometry" />
        </mxCell>
        <mxCell id="VF-F0CnbNoAk2hL9MY8E-103" value="" style="group" vertex="1" connectable="0" parent="VF-F0CnbNoAk2hL9MY8E-63">
          <mxGeometry x="560" y="154" width="90" height="30" as="geometry" />
        </mxCell>
        <mxCell id="VF-F0CnbNoAk2hL9MY8E-104" value="kube-proxy" style="rounded=1;whiteSpace=wrap;html=1;align=right;strokeColor=#994C00;" vertex="1" parent="VF-F0CnbNoAk2hL9MY8E-103">
          <mxGeometry width="90" height="30" as="geometry" />
        </mxCell>
        <mxCell id="VF-F0CnbNoAk2hL9MY8E-108" style="edgeStyle=orthogonalEdgeStyle;orthogonalLoop=1;jettySize=auto;html=1;curved=1;startArrow=classic;startFill=1;" edge="1" parent="VF-F0CnbNoAk2hL9MY8E-103" source="VF-F0CnbNoAk2hL9MY8E-105">
          <mxGeometry relative="1" as="geometry">
            <mxPoint x="-90" y="76" as="targetPoint" />
            <Array as="points">
              <mxPoint x="-30" y="15" />
              <mxPoint x="-30" y="76" />
            </Array>
          </mxGeometry>
        </mxCell>
        <mxCell id="VF-F0CnbNoAk2hL9MY8E-105" value="" style="sketch=0;html=1;dashed=0;whitespace=wrap;fillColor=#2875E2;strokeColor=#ffffff;points=[[0.005,0.63,0],[0.1,0.2,0],[0.9,0.2,0],[0.5,0,0],[0.995,0.63,0],[0.72,0.99,0],[0.5,1,0],[0.28,0.99,0]];verticalLabelPosition=bottom;align=center;verticalAlign=top;shape=mxgraph.kubernetes.icon;prIcon=k_proxy" vertex="1" parent="VF-F0CnbNoAk2hL9MY8E-103">
          <mxGeometry width="27" height="30" as="geometry" />
        </mxCell>
        <mxCell id="VF-F0CnbNoAk2hL9MY8E-106" style="edgeStyle=orthogonalEdgeStyle;orthogonalLoop=1;jettySize=auto;html=1;entryX=1;entryY=0.75;entryDx=0;entryDy=0;curved=1;startArrow=classic;startFill=1;" edge="1" parent="VF-F0CnbNoAk2hL9MY8E-63" source="VF-F0CnbNoAk2hL9MY8E-96" target="VF-F0CnbNoAk2hL9MY8E-11">
          <mxGeometry relative="1" as="geometry">
            <Array as="points">
              <mxPoint x="500" y="379" />
              <mxPoint x="500" y="250" />
            </Array>
          </mxGeometry>
        </mxCell>
        <mxCell id="VF-F0CnbNoAk2hL9MY8E-109" value="container-runtime" style="locked=1;" parent="0" />
        <mxCell id="VF-F0CnbNoAk2hL9MY8E-113" style="edgeStyle=orthogonalEdgeStyle;rounded=0;orthogonalLoop=1;jettySize=auto;html=1;exitX=0;exitY=0.5;exitDx=0;exitDy=0;entryX=1;entryY=0.5;entryDx=0;entryDy=0;dashed=1;endArrow=none;endFill=0;startArrow=open;startFill=0;" edge="1" parent="VF-F0CnbNoAk2hL9MY8E-109" source="VF-F0CnbNoAk2hL9MY8E-110" target="VF-F0CnbNoAk2hL9MY8E-74">
          <mxGeometry relative="1" as="geometry" />
        </mxCell>
        <mxCell id="VF-F0CnbNoAk2hL9MY8E-110" value="container&lt;br&gt;engine" style="shape=process;whiteSpace=wrap;html=1;backgroundOutline=1;strokeColor=#9933FF;" vertex="1" parent="VF-F0CnbNoAk2hL9MY8E-109">
          <mxGeometry x="665" y="116" width="90" height="30" as="geometry" />
        </mxCell>
        <mxCell id="VF-F0CnbNoAk2hL9MY8E-114" style="edgeStyle=orthogonalEdgeStyle;rounded=0;orthogonalLoop=1;jettySize=auto;html=1;exitX=0;exitY=0.5;exitDx=0;exitDy=0;entryX=1;entryY=0.5;entryDx=0;entryDy=0;dashed=1;startArrow=open;startFill=0;endArrow=none;endFill=0;" edge="1" parent="VF-F0CnbNoAk2hL9MY8E-109" source="VF-F0CnbNoAk2hL9MY8E-111" target="VF-F0CnbNoAk2hL9MY8E-71">
          <mxGeometry relative="1" as="geometry" />
        </mxCell>
        <mxCell id="VF-F0CnbNoAk2hL9MY8E-111" value="container&lt;br&gt;engine" style="shape=process;whiteSpace=wrap;html=1;backgroundOutline=1;strokeColor=#9933FF;" vertex="1" parent="VF-F0CnbNoAk2hL9MY8E-109">
          <mxGeometry x="665" y="226" width="90" height="30" as="geometry" />
        </mxCell>
        <mxCell id="VF-F0CnbNoAk2hL9MY8E-115" style="edgeStyle=orthogonalEdgeStyle;rounded=0;orthogonalLoop=1;jettySize=auto;html=1;exitX=0;exitY=0.5;exitDx=0;exitDy=0;entryX=1;entryY=0.5;entryDx=0;entryDy=0;endArrow=none;endFill=0;startArrow=open;startFill=0;dashed=1;" edge="1" parent="VF-F0CnbNoAk2hL9MY8E-109" source="VF-F0CnbNoAk2hL9MY8E-112" target="VF-F0CnbNoAk2hL9MY8E-68">
          <mxGeometry relative="1" as="geometry" />
        </mxCell>
        <mxCell id="VF-F0CnbNoAk2hL9MY8E-112" value="container&lt;br&gt;engine" style="shape=process;whiteSpace=wrap;html=1;backgroundOutline=1;strokeColor=#9933FF;" vertex="1" parent="VF-F0CnbNoAk2hL9MY8E-109">
          <mxGeometry x="665" y="326" width="90" height="30" as="geometry" />
        </mxCell>
        <mxCell id="VF-F0CnbNoAk2hL9MY8E-118" value="Pods" style="locked=1;" parent="0" />
        <mxCell id="VF-F0CnbNoAk2hL9MY8E-119" value="Pod" style="sketch=0;html=1;dashed=0;whitespace=wrap;fillColor=#2875E2;strokeColor=#ffffff;points=[[0.005,0.63,0],[0.1,0.2,0],[0.9,0.2,0],[0.5,0,0],[0.995,0.63,0],[0.72,0.99,0],[0.5,1,0],[0.28,0.99,0]];verticalLabelPosition=middle;align=left;verticalAlign=middle;shape=mxgraph.kubernetes.icon;prIcon=pod;labelPosition=right;" vertex="1" parent="VF-F0CnbNoAk2hL9MY8E-118">
          <mxGeometry x="665" y="363" width="40" height="30" as="geometry" />
        </mxCell>
        <mxCell id="VF-F0CnbNoAk2hL9MY8E-120" value="Pod" style="sketch=0;html=1;dashed=0;whitespace=wrap;fillColor=#2875E2;strokeColor=#ffffff;points=[[0.005,0.63,0],[0.1,0.2,0],[0.9,0.2,0],[0.5,0,0],[0.995,0.63,0],[0.72,0.99,0],[0.5,1,0],[0.28,0.99,0]];verticalLabelPosition=middle;align=left;verticalAlign=middle;shape=mxgraph.kubernetes.icon;prIcon=pod;labelPosition=right;" vertex="1" parent="VF-F0CnbNoAk2hL9MY8E-118">
          <mxGeometry x="665" y="263" width="40" height="30" as="geometry" />
        </mxCell>
        <mxCell id="VF-F0CnbNoAk2hL9MY8E-121" value="Pod" style="sketch=0;html=1;dashed=0;whitespace=wrap;fillColor=#2875E2;strokeColor=#ffffff;points=[[0.005,0.63,0],[0.1,0.2,0],[0.9,0.2,0],[0.5,0,0],[0.995,0.63,0],[0.72,0.99,0],[0.5,1,0],[0.28,0.99,0]];verticalLabelPosition=middle;align=left;verticalAlign=middle;shape=mxgraph.kubernetes.icon;prIcon=pod;labelPosition=right;" vertex="1" parent="VF-F0CnbNoAk2hL9MY8E-118">
          <mxGeometry x="665" y="153" width="40" height="30" as="geometry" />
        </mxCell>
        <mxCell id="VF-F0CnbNoAk2hL9MY8E-122" value="Containers" parent="0" visible="0" />
        <mxCell id="VF-F0CnbNoAk2hL9MY8E-123" value="" style="whiteSpace=wrap;html=1;rounded=1;strokeWidth=1;fillColor=#317AE3;strokeColor=#000000;" vertex="1" parent="VF-F0CnbNoAk2hL9MY8E-122">
          <mxGeometry x="482" y="310" width="128" height="140" as="geometry" />
        </mxCell>
        <mxCell id="VF-F0CnbNoAk2hL9MY8E-130" value="Container" style="whiteSpace=wrap;html=1;shadow=1;" vertex="1" parent="VF-F0CnbNoAk2hL9MY8E-122">
          <mxGeometry x="500" y="320" width="90" height="20" as="geometry" />
        </mxCell>
        <mxCell id="VF-F0CnbNoAk2hL9MY8E-131" value="Container" style="whiteSpace=wrap;html=1;shadow=1;dashed=1;" vertex="1" parent="VF-F0CnbNoAk2hL9MY8E-122">
          <mxGeometry x="500" y="350" width="90" height="20" as="geometry" />
        </mxCell>
        <mxCell id="VF-F0CnbNoAk2hL9MY8E-132" value="initContainer" style="whiteSpace=wrap;html=1;shadow=1;dashed=1;" vertex="1" parent="VF-F0CnbNoAk2hL9MY8E-122">
          <mxGeometry x="500" y="380" width="90" height="20" as="geometry" />
        </mxCell>
        <mxCell id="VF-F0CnbNoAk2hL9MY8E-133" value="SideCar" style="whiteSpace=wrap;html=1;shadow=1;dashed=1;" vertex="1" parent="VF-F0CnbNoAk2hL9MY8E-122">
          <mxGeometry x="500" y="410" width="90" height="20" as="geometry" />
        </mxCell>
        <mxCell id="VF-F0CnbNoAk2hL9MY8E-125" value="" style="triangle;whiteSpace=wrap;html=1;gradientColor=#2875e2;gradientDirection=west;strokeColor=none;" vertex="1" parent="VF-F0CnbNoAk2hL9MY8E-122">
          <mxGeometry x="609" y="340" width="60" height="80" as="geometry" />
        </mxCell>
      </root>
    </mxGraphModel>
  </diagram>
</mxfile>
